<svg xmlns="http://www.w3.org/2000/svg" width="170" height="254" viewBox="0 0 44.979 67.204"><path style="opacity:1;fill:#fff;fill-opacity:1;stroke:#000;stroke-width:0;stroke-linecap:round;stroke-miterlimit:4;stroke-dasharray:none;stroke-opacity:.55392157;paint-order:markers fill stroke" d="M15.969 230.325v14.012h12.763v-14.012zm15.392 3.55v39.703a9.362 9.362 0 0 1-2.63 5.516v13.932c8.428-2.567 14.694-10.18 15.187-19.407h.003v-39.744zm-2.63 59.15c-1.98.604-4.077.93-6.249.93a21.45 21.45 0 0 1-6.513-1.02v3.536h12.763Zm-12.762-.09V278.81a9.378 9.378 0 0 1-2.363-5.25v-11.209H1.058v11.21c.465 9.15 6.608 16.718 14.91 19.372zm0-14.124c1.638 1.805 3.962 2.92 6.513 2.923 2.417-.002 4.63-1 6.25-2.64v-32.117H15.969Z" transform="translate(0 -229.796)"/></svg>